<svg xmlns="http://www.w3.org/2000/svg" version="1.1" xmlns:xlink="http://www.w3.org/1999/xlink" xmlns:svgjs="http://svgjs.dev/svgjs" width="95" height="95"><svg xmlns="http://www.w3.org/2000/svg" width="95" height="95" viewBox="0 0 95 95" fill="none">
<path d="M72.7547 -8.21719e-05L0 22.0352L22.0352 94.7899L94.7899 72.7546L72.7547 -8.21719e-05Z" fill="#03318C"></path>
<path d="M49.9601 40.2173L49.5278 30.9242H49.5007L45.8805 37.8407L42.2875 30.9242H42.2613L41.829 40.2173H39.938L40.694 28.1152H42.7469L45.8805 34.112H45.9076L49.0412 28.1152H51.095L51.8511 40.2173H49.9601Z" fill="white"></path>
<path d="M58.4433 29.8172V40.2173H56.4709V29.8172H53.2017V28.1152H61.7117V29.8172H58.4433Z" fill="white"></path>
<path d="M33.6702 40.4871C32.3734 40.4871 31.2655 40.1896 30.4019 39.7573L30.5095 37.9205C31.374 38.4071 32.4005 38.7851 33.5354 38.7851C35.2103 38.7851 35.9401 37.9748 35.9401 36.9755C35.9401 35.9762 35.0484 35.4082 33.8872 35.0031L33.4278 34.8412C31.564 34.1928 30.4561 33.2477 30.4561 31.221C30.4561 29.1944 31.942 27.8984 34.5085 27.8984C35.7783 27.8984 36.6971 28.1688 37.4531 28.4926L37.3455 30.3022C36.6428 29.9513 35.6978 29.5995 34.6713 29.5995C33.3202 29.5995 32.5099 30.1394 32.5099 31.2201C32.5099 32.1923 33.266 32.6246 34.1305 32.9764L35.4274 33.4901C36.859 34.0571 37.9939 35.0031 37.9939 36.9483C37.9939 38.947 36.5352 40.4871 33.672 40.4871" fill="white"></path>
<path d="M21.8389 40.2173V28.1152H28.5655V29.763L23.8104 29.7901V33.1398H28.1603V34.7604H23.8104V38.5696H28.5655V40.2173H21.8389Z" fill="white"></path>
<path d="M25.5123 57.856H21.8379V45.7539H25.6199C27.6457 45.7539 29.5367 46.2938 29.5367 48.6985C29.5367 50.5081 28.2127 51.1837 27.4567 51.4269V51.4541C28.1593 51.5888 29.8613 52.1296 29.8613 54.291C29.8885 56.5872 28.5645 57.8569 25.5123 57.8569M25.4589 47.3474H23.8112V50.7514H25.3242C26.7829 50.7514 27.5127 50.103 27.5127 48.9418C27.5127 47.7806 26.7296 47.3483 25.4598 47.3483M25.4318 52.3449H23.8112V56.2345H25.3513C26.9448 56.2345 27.8636 55.6403 27.8636 54.2621C27.8636 52.8839 26.9448 52.344 25.4327 52.344" fill="white"></path>
<path d="M32.1753 57.856V45.7539H38.8748V47.4016L34.1477 47.4288V50.7514H38.4967V52.3991H34.1477V56.1811L38.8748 56.2083V57.856H32.1753Z" fill="white"></path>
<path d="M47.6039 57.856L46.1452 54.1554C45.8476 53.3993 45.362 53.0204 44.7678 53.0204H43.282V57.856H41.3096V45.7539H45.2263C47.7386 45.7539 49.3321 46.7261 49.3321 49.2122C49.3321 50.8599 48.3057 51.9135 46.8741 52.3458V52.3729C47.0631 52.4 47.6039 52.6704 47.9548 53.4807L49.8729 57.884H47.6039V57.8569V57.856ZM45.0645 47.3745H43.2548V51.3727H44.8483C46.5232 51.3727 47.3064 50.5624 47.3064 49.3469C47.3064 48.0501 46.6579 47.3745 45.0645 47.3745Z" fill="white"></path>
<path d="M51.8237 57.856V45.7539H53.7961V56.1811L58.4427 56.2083V57.856H51.8237Z" fill="white"></path>
<path d="M62.4132 45.7539H60.4146V57.856H62.4132V45.7539Z" fill="white"></path>
<path d="M71.1288 57.856L66.1313 48.8875L66.1575 57.856H64.3208V45.7539H66.4008L71.3992 54.7224H71.4254L71.3992 45.7539H73.236V57.856H71.1288Z" fill="white"></path>
<path d="M15.6479 73.8814L57.459 73.2267C57.6977 75.1964 59.3726 76.7238 61.4074 76.7238C63.4422 76.7238 65.1831 75.1367 65.3694 73.1109L90.4174 72.7437L65.3694 72.3766C65.184 70.3508 63.482 68.7637 61.4074 68.7637C59.3328 68.7637 57.6986 70.2911 57.459 72.2608L14.9985 71.5997" fill="#F6CF71"></path>
</svg><style>@media (prefers-color-scheme: light) { :root { filter: none; } }
@media (prefers-color-scheme: dark) { :root { filter: none; } }
</style></svg>